<svg xmlns="http://www.w3.org/2000/svg" viewBox="0 0 1500 900" font-family="Liberation Sans, Arial, sans-serif"><defs><linearGradient id="c1" x1="0" y1="0" x2="1" y2="1"><stop offset="0" stop-color="#4f97ff"/><stop offset="1" stop-color="#1f5fd6"/></linearGradient>
 <linearGradient id="c2" x1="0" y1="0" x2="1" y2="1"><stop offset="0" stop-color="#2fd2c2"/><stop offset="1" stop-color="#10a294"/></linearGradient>
 <linearGradient id="c3" x1="0" y1="0" x2="1" y2="1"><stop offset="0" stop-color="#9a7fff"/><stop offset="1" stop-color="#5a36e0"/></linearGradient>
 <radialGradient id="sweepR" cx="50%" cy="50%" r="50%"><stop offset="0" stop-color="#2fd2c2" stop-opacity=".55"/><stop offset="1" stop-color="#2fd2c2" stop-opacity="0"/></radialGradient>
 <linearGradient id="sweepL" x1="0" y1="0" x2="1" y2="0"><stop offset="0" stop-color="#2fd2c2" stop-opacity="0"/><stop offset="1" stop-color="#2fd2c2" stop-opacity=".5"/></linearGradient>
 <filter id="cardSh" x="-40%" y="-40%" width="180%" height="180%"><feDropShadow dx="0" dy="11" stdDeviation="15" flood-color="#1f3a7a" flood-opacity="0.10"/></filter>
 <filter id="glow" x="-80%" y="-80%" width="260%" height="260%"><feGaussianBlur stdDeviation="6"/></filter><radialGradient id="atmoA" cx="18%" cy="18%" r="62%"><stop offset="0" stop-color="#e9eefb" stop-opacity=".9"/><stop offset="1" stop-color="#e9eefb" stop-opacity="0"/></radialGradient><radialGradient id="atmoB" cx="85%" cy="88%" r="62%"><stop offset="0" stop-color="#ece7fb" stop-opacity=".9"/><stop offset="1" stop-color="#ece7fb" stop-opacity="0"/></radialGradient></defs><rect width="1500" height="900" fill="#fafbfc"/><rect width="1500" height="900" fill="url(#atmoA)"/><rect width="1500" height="900" fill="url(#atmoB)"/><g text-anchor="middle"><rect x="640" y="40" width="220" height="40" rx="20" fill="#ffffff" stroke="#e7e8ec"/><circle cx="672" cy="60" r="5" fill="#2fd2c2"/><text x="762" y="66" font-size="20" font-weight="700" fill="#3a3f4a">How it works</text><text x="750" y="132" font-size="42" font-weight="700" fill="#0f1115" letter-spacing="-1">One signal, start to finish.</text><text x="750" y="170" text-anchor="middle" font-size="19" fill="#3a3f4a">Pick up the market, tune the ad, put it on the air.</text></g><line x1="250" y1="520" x2="1290" y2="520" stroke="#dde3ee" stroke-width="2" stroke-dasharray="2 8"/><polyline points="250,520.0 255,517.2 260,514.3 265,511.5 270,508.7 275,506.0 280,503.2 285,500.6 290,497.9 295,495.4 300,492.9 305,490.5 310,488.1 315,485.9 320,483.7 325,481.7 330,479.7 335,477.9 340,476.2 345,474.6 350,473.1 355,471.7 360,470.5 365,469.5 370,468.5 375,467.7 380,467.1 385,466.6 390,466.3 395,466.1 400,466.0 405,466.1 410,466.3 415,466.7 420,467.3 425,468.0 430,468.8 435,469.8 440,470.9 445,472.1 450,473.5 455,475.0 460,476.7 465,478.4 470,480.3 475,482.3 480,484.4 485,486.6 490,488.8 495,491.2 500,493.6 505,496.2 510,498.7 515,501.4 520,504.1 525,506.8 530,509.6 535,512.4 540,515.2 545,518.0 550,520.9 555,523.7 560,526.5 565,529.4 570,532.1 575,534.9 580,537.6 585,540.3 590,542.9 595,545.4 600,547.9 605,550.3 610,552.6 615,554.8 620,556.9 625,559.0 630,560.9 635,562.7 640,564.3 645,565.9 650,567.3 655,568.6 660,569.8 665,570.8 670,571.7 675,572.5 680,573.1 685,573.5 690,573.8 695,574.0 700,574.0 705,573.8 710,573.5 715,573.1 720,572.5 725,571.8 730,570.9 735,569.9 740,568.7 745,567.4 750,566.0 755,564.5 760,562.8 765,561.0 770,559.1 775,557.1 780,555.0 785,552.7 790,550.4 795,548.1 800,545.6 805,543.1 810,540.5 815,537.8 820,535.1 825,532.3 830,529.6 835,526.7 840,523.9 845,521.1 850,518.2 855,515.4 860,512.6 865,509.8 870,507.0 875,504.3 880,501.6 885,498.9 890,496.3 895,493.8 900,491.4 905,489.0 910,486.7 915,484.5 920,482.4 925,480.4 930,478.6 935,476.8 940,475.2 945,473.6 950,472.2 955,471.0 960,469.9 965,468.9 970,468.0 975,467.3 980,466.8 985,466.4 990,466.1 995,466.0 1000,466.0 1005,466.2 1010,466.6 1015,467.1 1020,467.7 1025,468.5 1030,469.4 1035,470.5 1040,471.7 1045,473.0 1050,474.5 1055,476.0 1060,477.8 1065,479.6 1070,481.5 1075,483.6 1080,485.7 1085,488.0 1090,490.3 1095,492.7 1100,495.2 1105,497.7 1110,500.4 1115,503.0 1120,505.8 1125,508.5 1130,511.3 1135,514.1 1140,517.0 1145,519.8 1150,522.6 1155,525.5 1160,528.3 1165,531.1 1170,533.9 1175,536.6 1180,539.3 1185,541.9 1190,544.5 1195,547.0 1200,549.4 1205,551.7 1210,554.0 1215,556.1 1220,558.2 1225,560.2 1230,562.0 1235,563.7 1240,565.3 1245,566.8 1250,568.2 1255,569.4 1260,570.5 1265,571.4 1270,572.2 1275,572.9 1280,573.4 1285,573.7" fill="none" stroke="#27c2b4" stroke-width="8" stroke-linecap="round" stroke-linejoin="round"/><circle cx="310" cy="488" r="5" fill="#2fd2c2"/><circle cx="428" cy="468" r="5" fill="#2fd2c2"/><circle cx="546" cy="519" r="5" fill="#2fd2c2"/><circle cx="664" cy="571" r="5" fill="#2fd2c2"/><circle cx="782" cy="554" r="5" fill="#2fd2c2"/><circle cx="900" cy="491" r="5" fill="#2fd2c2"/><circle cx="1018" cy="467" r="5" fill="#2fd2c2"/><circle cx="1136" cy="515" r="5" fill="#2fd2c2"/><circle cx="290" cy="520" r="98" fill="#fff" filter="url(#cardSh)"/><circle cx="290" cy="520" r="86" fill="none" stroke="#2fbfb0" stroke-opacity="0.2" stroke-width="2.4"/><circle cx="290" cy="520" r="57" fill="none" stroke="#2fbfb0" stroke-opacity="0.3" stroke-width="2.4"/><circle cx="290" cy="520" r="29" fill="none" stroke="#2fbfb0" stroke-opacity="0.42" stroke-width="2.4"/><line x1="204" y1="520" x2="376" y2="520" stroke="#2fbfb0" stroke-opacity=".18" stroke-width="2"/><line x1="290" y1="434" x2="290" y2="606" stroke="#2fbfb0" stroke-opacity=".18" stroke-width="2"/><path d="M290,520 L336,447 A86,86 0 0,1 376,523 Z" fill="url(#sweepL)"/><circle cx="308" cy="454" r="6" fill="#1f6feb"/><circle cx="308" cy="454" r="11" fill="none" stroke="#1f6feb" stroke-opacity=".3" stroke-width="2"/><circle cx="289" cy="537" r="4" fill="#9aa3b4"/><circle cx="227" cy="532" r="6" fill="#1f6feb"/><circle cx="227" cy="532" r="11" fill="none" stroke="#1f6feb" stroke-opacity=".3" stroke-width="2"/><circle cx="294" cy="486" r="4" fill="#9aa3b4"/><circle cx="284" cy="478" r="4" fill="#9aa3b4"/><circle cx="278" cy="493" r="4" fill="#9aa3b4"/><circle cx="290" cy="520" r="6" fill="#2fbfb0"/><rect x="678" y="448" width="144" height="144" rx="28" fill="#fff" filter="url(#cardSh)"/><rect x="696" y="512" width="12" height="34" rx="5" fill="url(#c2)"/><rect x="718" y="486" width="12" height="60" rx="5" fill="url(#c2)"/><rect x="740" y="502" width="12" height="44" rx="5" fill="url(#c2)"/><rect x="762" y="476" width="12" height="70" rx="5" fill="url(#c2)"/><rect x="784" y="506" width="12" height="40" rx="5" fill="url(#c2)"/><path d="M1176,560 L1200,462 L1224,560 Z" fill="none" stroke="#7c5cff" stroke-width="6" stroke-linejoin="round"/><circle cx="1200" cy="456" r="9" fill="url(#c3)"/><circle cx="1193" cy="456" r="15" fill="url(#c3)"/><path d="M1208 430 A 26 26 0 0 1 1208 482" fill="none" stroke="url(#c3)" stroke-width="6" stroke-linecap="round" opacity="0.95"/><path d="M1208 408 A 48 48 0 0 1 1208 504" fill="none" stroke="url(#c3)" stroke-width="6" stroke-linecap="round" opacity="0.75"/><path d="M1208 386 A 70 70 0 0 1 1208 526" fill="none" stroke="url(#c3)" stroke-width="6" stroke-linecap="round" opacity="0.55"/><circle cx="1142" cy="612" r="14" fill="#fff" stroke="#9a7fff" stroke-width="3"/><circle cx="1142" cy="609" r="5" fill="#9a7fff"/><path d="M1135,621 a7,5 0 0 1 14,0" fill="#9a7fff"/><circle cx="1200" cy="612" r="14" fill="#fff" stroke="#9a7fff" stroke-width="3"/><circle cx="1200" cy="609" r="5" fill="#9a7fff"/><path d="M1193,621 a7,5 0 0 1 14,0" fill="#9a7fff"/><circle cx="1258" cy="612" r="14" fill="#fff" stroke="#9a7fff" stroke-width="3"/><circle cx="1258" cy="609" r="5" fill="#9a7fff"/><path d="M1251,621 a7,5 0 0 1 14,0" fill="#9a7fff"/><text x="290" y="724" text-anchor="middle" font-size="23" font-weight="700" fill="#0f1115">1 · Scan</text><text x="290" y="754" text-anchor="middle" font-size="17" fill="#3a3f4a">Pick up every local ad.</text><text x="750" y="724" text-anchor="middle" font-size="23" font-weight="700" fill="#0f1115">2 · Build</text><text x="750" y="754" text-anchor="middle" font-size="17" fill="#3a3f4a">Tune it to what works.</text><text x="1195" y="760" text-anchor="middle" font-size="23" font-weight="700" fill="#0f1115">3 · Broadcast</text><text x="1195" y="790" text-anchor="middle" font-size="17" fill="#3a3f4a">Transmit to buyers.</text></svg>