<svg xmlns="http://www.w3.org/2000/svg" viewBox="0 0 1500 900" font-family="Liberation Sans, Arial, sans-serif"><defs><linearGradient id="c1" x1="0" y1="0" x2="1" y2="1"><stop offset="0" stop-color="#4f97ff"/><stop offset="1" stop-color="#1f5fd6"/></linearGradient>
 <linearGradient id="c2" x1="0" y1="0" x2="1" y2="1"><stop offset="0" stop-color="#2fd2c2"/><stop offset="1" stop-color="#10a294"/></linearGradient>
 <linearGradient id="c3" x1="0" y1="0" x2="1" y2="1"><stop offset="0" stop-color="#9a7fff"/><stop offset="1" stop-color="#5a36e0"/></linearGradient>
 <radialGradient id="sweepR" cx="50%" cy="50%" r="50%"><stop offset="0" stop-color="#2fd2c2" stop-opacity=".55"/><stop offset="1" stop-color="#2fd2c2" stop-opacity="0"/></radialGradient>
 <linearGradient id="sweepL" x1="0" y1="0" x2="1" y2="0"><stop offset="0" stop-color="#2fd2c2" stop-opacity="0"/><stop offset="1" stop-color="#2fd2c2" stop-opacity=".5"/></linearGradient>
 <filter id="cardSh" x="-40%" y="-40%" width="180%" height="180%"><feDropShadow dx="0" dy="11" stdDeviation="15" flood-color="#1f3a7a" flood-opacity="0.10"/></filter>
 <filter id="glow" x="-80%" y="-80%" width="260%" height="260%"><feGaussianBlur stdDeviation="6"/></filter><radialGradient id="dbg" cx="35%" cy="20%" r="90%"><stop offset="0" stop-color="#13203f"/><stop offset="1" stop-color="#0a0f1f"/></radialGradient></defs><rect width="1500" height="900" fill="url(#dbg)"/><line x1="0" y1="0" x2="0" y2="900" stroke="#1b2748" stroke-opacity=".4" stroke-width="1"/><line x1="60" y1="0" x2="60" y2="900" stroke="#1b2748" stroke-opacity=".4" stroke-width="1"/><line x1="120" y1="0" x2="120" y2="900" stroke="#1b2748" stroke-opacity=".4" stroke-width="1"/><line x1="180" y1="0" x2="180" y2="900" stroke="#1b2748" stroke-opacity=".4" stroke-width="1"/><line x1="240" y1="0" x2="240" y2="900" stroke="#1b2748" stroke-opacity=".4" stroke-width="1"/><line x1="300" y1="0" x2="300" y2="900" stroke="#1b2748" stroke-opacity=".4" stroke-width="1"/><line x1="360" y1="0" x2="360" y2="900" stroke="#1b2748" stroke-opacity=".4" stroke-width="1"/><line x1="420" y1="0" x2="420" y2="900" stroke="#1b2748" stroke-opacity=".4" stroke-width="1"/><line x1="480" y1="0" x2="480" y2="900" stroke="#1b2748" stroke-opacity=".4" stroke-width="1"/><line x1="540" y1="0" x2="540" y2="900" stroke="#1b2748" stroke-opacity=".4" stroke-width="1"/><line x1="600" y1="0" x2="600" y2="900" stroke="#1b2748" stroke-opacity=".4" stroke-width="1"/><line x1="660" y1="0" x2="660" y2="900" stroke="#1b2748" stroke-opacity=".4" stroke-width="1"/><line x1="720" y1="0" x2="720" y2="900" stroke="#1b2748" stroke-opacity=".4" stroke-width="1"/><line x1="780" y1="0" x2="780" y2="900" stroke="#1b2748" stroke-opacity=".4" stroke-width="1"/><line x1="840" y1="0" x2="840" y2="900" stroke="#1b2748" stroke-opacity=".4" stroke-width="1"/><line x1="900" y1="0" x2="900" y2="900" stroke="#1b2748" stroke-opacity=".4" stroke-width="1"/><line x1="960" y1="0" x2="960" y2="900" stroke="#1b2748" stroke-opacity=".4" stroke-width="1"/><line x1="1020" y1="0" x2="1020" y2="900" stroke="#1b2748" stroke-opacity=".4" stroke-width="1"/><line x1="1080" y1="0" x2="1080" y2="900" stroke="#1b2748" stroke-opacity=".4" stroke-width="1"/><line x1="1140" y1="0" x2="1140" y2="900" stroke="#1b2748" stroke-opacity=".4" stroke-width="1"/><line x1="1200" y1="0" x2="1200" y2="900" stroke="#1b2748" stroke-opacity=".4" stroke-width="1"/><line x1="1260" y1="0" x2="1260" y2="900" stroke="#1b2748" stroke-opacity=".4" stroke-width="1"/><line x1="1320" y1="0" x2="1320" y2="900" stroke="#1b2748" stroke-opacity=".4" stroke-width="1"/><line x1="1380" y1="0" x2="1380" y2="900" stroke="#1b2748" stroke-opacity=".4" stroke-width="1"/><line x1="1440" y1="0" x2="1440" y2="900" stroke="#1b2748" stroke-opacity=".4" stroke-width="1"/><line x1="0" y1="0" x2="1500" y2="0" stroke="#1b2748" stroke-opacity=".4" stroke-width="1"/><line x1="0" y1="60" x2="1500" y2="60" stroke="#1b2748" stroke-opacity=".4" stroke-width="1"/><line x1="0" y1="120" x2="1500" y2="120" stroke="#1b2748" stroke-opacity=".4" stroke-width="1"/><line x1="0" y1="180" x2="1500" y2="180" stroke="#1b2748" stroke-opacity=".4" stroke-width="1"/><line x1="0" y1="240" x2="1500" y2="240" stroke="#1b2748" stroke-opacity=".4" stroke-width="1"/><line x1="0" y1="300" x2="1500" y2="300" stroke="#1b2748" stroke-opacity=".4" stroke-width="1"/><line x1="0" y1="360" x2="1500" y2="360" stroke="#1b2748" stroke-opacity=".4" stroke-width="1"/><line x1="0" y1="420" x2="1500" y2="420" stroke="#1b2748" stroke-opacity=".4" stroke-width="1"/><line x1="0" y1="480" x2="1500" y2="480" stroke="#1b2748" stroke-opacity=".4" stroke-width="1"/><line x1="0" y1="540" x2="1500" y2="540" stroke="#1b2748" stroke-opacity=".4" stroke-width="1"/><line x1="0" y1="600" x2="1500" y2="600" stroke="#1b2748" stroke-opacity=".4" stroke-width="1"/><line x1="0" y1="660" x2="1500" y2="660" stroke="#1b2748" stroke-opacity=".4" stroke-width="1"/><line x1="0" y1="720" x2="1500" y2="720" stroke="#1b2748" stroke-opacity=".4" stroke-width="1"/><line x1="0" y1="780" x2="1500" y2="780" stroke="#1b2748" stroke-opacity=".4" stroke-width="1"/><line x1="0" y1="840" x2="1500" y2="840" stroke="#1b2748" stroke-opacity=".4" stroke-width="1"/><g text-anchor="middle"><rect x="640" y="40" width="220" height="40" rx="20" fill="#101a33" stroke="#27365e"/><circle cx="672" cy="60" r="5" fill="#2fd2c2"/><text x="762" y="66" font-size="20" font-weight="700" fill="#93a6cc">How it works</text><text x="750" y="132" font-size="42" font-weight="700" fill="#eaf1ff" letter-spacing="-1">Scan. Build. Broadcast.</text><text x="750" y="170" text-anchor="middle" font-size="19" fill="#93a6cc">A live read on your market — then your ad on the air.</text></g><circle cx="440" cy="520" r="230" fill="none" stroke="#2fd2c2" stroke-opacity=".22" stroke-width="3" filter="url(#glow)"/><circle cx="440" cy="520" r="230" fill="none" stroke="#2fd2c2" stroke-opacity="0.2" stroke-width="2.4"/><circle cx="440" cy="520" r="152" fill="none" stroke="#2fd2c2" stroke-opacity="0.3" stroke-width="2.4"/><circle cx="440" cy="520" r="78" fill="none" stroke="#2fd2c2" stroke-opacity="0.42" stroke-width="2.4"/><line x1="210" y1="520" x2="670" y2="520" stroke="#2fd2c2" stroke-opacity=".18" stroke-width="2"/><line x1="440" y1="290" x2="440" y2="750" stroke="#2fd2c2" stroke-opacity=".18" stroke-width="2"/><path d="M440,520 L562,325 A230,230 0 0,1 670,528 Z" fill="url(#sweepL)"/><circle cx="446" cy="583" r="6" fill="#49e8d8"/><circle cx="446" cy="583" r="11" fill="none" stroke="#49e8d8" stroke-opacity=".3" stroke-width="2"/><circle cx="472" cy="567" r="6" fill="#49e8d8"/><circle cx="472" cy="567" r="11" fill="none" stroke="#49e8d8" stroke-opacity=".3" stroke-width="2"/><circle cx="595" cy="432" r="4" fill="#3a5170"/><circle cx="464" cy="653" r="6" fill="#49e8d8"/><circle cx="464" cy="653" r="11" fill="none" stroke="#49e8d8" stroke-opacity=".3" stroke-width="2"/><circle cx="470" cy="576" r="6" fill="#49e8d8"/><circle cx="470" cy="576" r="11" fill="none" stroke="#49e8d8" stroke-opacity=".3" stroke-width="2"/><circle cx="604" cy="439" r="4" fill="#3a5170"/><circle cx="464" cy="446" r="6" fill="#49e8d8"/><circle cx="464" cy="446" r="11" fill="none" stroke="#49e8d8" stroke-opacity=".3" stroke-width="2"/><circle cx="323" cy="401" r="4" fill="#3a5170"/><circle cx="484" cy="479" r="4" fill="#3a5170"/><circle cx="440" cy="520" r="6" fill="#2fd2c2"/><text x="226" y="300" font-size="15" fill="#5d7bb0" font-family="Liberation Mono, monospace">SCAN ▸ 23 ADS LIVE</text><rect x="848" y="368" width="184" height="154" rx="22" fill="#101a33" stroke="#27365e"/><rect x="878" y="390" width="124" height="50" rx="12" fill="url(#c2)" filter="url(#glow)"/><rect x="878" y="390" width="124" height="50" rx="12" fill="url(#c2)"/><path d="M945,397 L928,419 H941 L938,435 L955,412 H942 Z" fill="#fff"/><rect x="878" y="452" width="124" height="8" rx="4" fill="#27365e"/><rect x="878" y="470" width="84" height="8" rx="4" fill="#1d294a"/><rect x="878" y="488" width="104" height="8" rx="4" fill="#1d294a"/><circle cx="1140" cy="640" r="15" fill="url(#c3)"/><path d="M1160 606 A 34 34 0 0 1 1160 674" fill="none" stroke="url(#c3)" stroke-width="6" stroke-linecap="round" opacity="0.95" filter="url(#glow)"/><path d="M1160 576 A 64 64 0 0 1 1160 704" fill="none" stroke="url(#c3)" stroke-width="6" stroke-linecap="round" opacity="0.75" filter="url(#glow)"/><path d="M1160 546 A 94 94 0 0 1 1160 734" fill="none" stroke="url(#c3)" stroke-width="6" stroke-linecap="round" opacity="0.55" filter="url(#glow)"/><path d="M1160 516 A 124 124 0 0 1 1160 764" fill="none" stroke="url(#c3)" stroke-width="6" stroke-linecap="round" opacity="0.35" filter="url(#glow)"/><circle cx="1280" cy="574" r="14" fill="#fff" stroke="#9a7fff" stroke-width="3"/><circle cx="1280" cy="571" r="5" fill="#9a7fff"/><path d="M1273,583 a7,5 0 0 1 14,0" fill="#9a7fff"/><circle cx="1280" cy="640" r="14" fill="#fff" stroke="#9a7fff" stroke-width="3"/><circle cx="1280" cy="637" r="5" fill="#9a7fff"/><path d="M1273,649 a7,5 0 0 1 14,0" fill="#9a7fff"/><circle cx="1280" cy="706" r="14" fill="#fff" stroke="#9a7fff" stroke-width="3"/><circle cx="1280" cy="703" r="5" fill="#9a7fff"/><path d="M1273,715 a7,5 0 0 1 14,0" fill="#9a7fff"/><path d="M690,520 C790,495 840,470 850,452" stroke="#2fd2c2" stroke-opacity=".5" stroke-width="2.5" fill="none" stroke-dasharray="2 9"/><path d="M1030,470 C1090,520 1110,560 1130,600" stroke="#9a7fff" stroke-opacity=".5" stroke-width="2.5" fill="none" stroke-dasharray="2 9"/><text x="440" y="800" text-anchor="middle" font-size="23" font-weight="700" fill="#eaf1ff">1 · Scan your suburb</text><text x="440" y="830" text-anchor="middle" font-size="17" fill="#93a6cc">Find every ad already running.</text><text x="940" y="615" text-anchor="middle" font-size="23" font-weight="700" fill="#eaf1ff">2 · Build the ad</text><text x="940" y="645" text-anchor="middle" font-size="17" fill="#93a6cc">From what’s working locally.</text><text x="1190" y="800" text-anchor="middle" font-size="23" font-weight="700" fill="#eaf1ff">3 · Broadcast</text><text x="1190" y="830" text-anchor="middle" font-size="17" fill="#93a6cc">Go live; reach buyers.</text></svg>