<svg xmlns="http://www.w3.org/2000/svg" viewBox="0 0 1500 820" font-family="Liberation Sans, Arial, sans-serif"><defs><linearGradient id="c2" x1="0" y1="0" x2="1" y2="1"><stop offset="0" stop-color="#2fd2c2"/><stop offset="1" stop-color="#10a294"/></linearGradient>
 <linearGradient id="c3" x1="0" y1="0" x2="1" y2="1"><stop offset="0" stop-color="#9a7fff"/><stop offset="1" stop-color="#5a36e0"/></linearGradient>
 <linearGradient id="sweepL" x1="0" y1="0" x2="1" y2="0"><stop offset="0" stop-color="#2fd2c2" stop-opacity="0"/><stop offset="1" stop-color="#2fd2c2" stop-opacity=".5"/></linearGradient>
 <filter id="cardSh" x="-40%" y="-40%" width="180%" height="180%"><feDropShadow dx="0" dy="11" stdDeviation="15" flood-color="#1f3a7a" flood-opacity="0.10"/></filter>
 <filter id="glow" x="-90%" y="-90%" width="280%" height="280%"><feGaussianBlur stdDeviation="5"/></filter><radialGradient id="dbg" cx="40%" cy="18%" r="95%"><stop offset="0" stop-color="#12203e"/><stop offset="1" stop-color="#080d1b"/></radialGradient></defs><rect width="1500" height="820" fill="url(#dbg)"/><line x1="0" y1="0" x2="0" y2="820" stroke="#16223f" stroke-opacity=".5" stroke-width="1"/><line x1="56" y1="0" x2="56" y2="820" stroke="#16223f" stroke-opacity=".5" stroke-width="1"/><line x1="112" y1="0" x2="112" y2="820" stroke="#16223f" stroke-opacity=".5" stroke-width="1"/><line x1="168" y1="0" x2="168" y2="820" stroke="#16223f" stroke-opacity=".5" stroke-width="1"/><line x1="224" y1="0" x2="224" y2="820" stroke="#16223f" stroke-opacity=".5" stroke-width="1"/><line x1="280" y1="0" x2="280" y2="820" stroke="#16223f" stroke-opacity=".5" stroke-width="1"/><line x1="336" y1="0" x2="336" y2="820" stroke="#16223f" stroke-opacity=".5" stroke-width="1"/><line x1="392" y1="0" x2="392" y2="820" stroke="#16223f" stroke-opacity=".5" stroke-width="1"/><line x1="448" y1="0" x2="448" y2="820" stroke="#16223f" stroke-opacity=".5" stroke-width="1"/><line x1="504" y1="0" x2="504" y2="820" stroke="#16223f" stroke-opacity=".5" stroke-width="1"/><line x1="560" y1="0" x2="560" y2="820" stroke="#16223f" stroke-opacity=".5" stroke-width="1"/><line x1="616" y1="0" x2="616" y2="820" stroke="#16223f" stroke-opacity=".5" stroke-width="1"/><line x1="672" y1="0" x2="672" y2="820" stroke="#16223f" stroke-opacity=".5" stroke-width="1"/><line x1="728" y1="0" x2="728" y2="820" stroke="#16223f" stroke-opacity=".5" stroke-width="1"/><line x1="784" y1="0" x2="784" y2="820" stroke="#16223f" stroke-opacity=".5" stroke-width="1"/><line x1="840" y1="0" x2="840" y2="820" stroke="#16223f" stroke-opacity=".5" stroke-width="1"/><line x1="896" y1="0" x2="896" y2="820" stroke="#16223f" stroke-opacity=".5" stroke-width="1"/><line x1="952" y1="0" x2="952" y2="820" stroke="#16223f" stroke-opacity=".5" stroke-width="1"/><line x1="1008" y1="0" x2="1008" y2="820" stroke="#16223f" stroke-opacity=".5" stroke-width="1"/><line x1="1064" y1="0" x2="1064" y2="820" stroke="#16223f" stroke-opacity=".5" stroke-width="1"/><line x1="1120" y1="0" x2="1120" y2="820" stroke="#16223f" stroke-opacity=".5" stroke-width="1"/><line x1="1176" y1="0" x2="1176" y2="820" stroke="#16223f" stroke-opacity=".5" stroke-width="1"/><line x1="1232" y1="0" x2="1232" y2="820" stroke="#16223f" stroke-opacity=".5" stroke-width="1"/><line x1="1288" y1="0" x2="1288" y2="820" stroke="#16223f" stroke-opacity=".5" stroke-width="1"/><line x1="1344" y1="0" x2="1344" y2="820" stroke="#16223f" stroke-opacity=".5" stroke-width="1"/><line x1="1400" y1="0" x2="1400" y2="820" stroke="#16223f" stroke-opacity=".5" stroke-width="1"/><line x1="1456" y1="0" x2="1456" y2="820" stroke="#16223f" stroke-opacity=".5" stroke-width="1"/><line x1="0" y1="0" x2="1500" y2="0" stroke="#16223f" stroke-opacity=".5" stroke-width="1"/><line x1="0" y1="56" x2="1500" y2="56" stroke="#16223f" stroke-opacity=".5" stroke-width="1"/><line x1="0" y1="112" x2="1500" y2="112" stroke="#16223f" stroke-opacity=".5" stroke-width="1"/><line x1="0" y1="168" x2="1500" y2="168" stroke="#16223f" stroke-opacity=".5" stroke-width="1"/><line x1="0" y1="224" x2="1500" y2="224" stroke="#16223f" stroke-opacity=".5" stroke-width="1"/><line x1="0" y1="280" x2="1500" y2="280" stroke="#16223f" stroke-opacity=".5" stroke-width="1"/><line x1="0" y1="336" x2="1500" y2="336" stroke="#16223f" stroke-opacity=".5" stroke-width="1"/><line x1="0" y1="392" x2="1500" y2="392" stroke="#16223f" stroke-opacity=".5" stroke-width="1"/><line x1="0" y1="448" x2="1500" y2="448" stroke="#16223f" stroke-opacity=".5" stroke-width="1"/><line x1="0" y1="504" x2="1500" y2="504" stroke="#16223f" stroke-opacity=".5" stroke-width="1"/><line x1="0" y1="560" x2="1500" y2="560" stroke="#16223f" stroke-opacity=".5" stroke-width="1"/><line x1="0" y1="616" x2="1500" y2="616" stroke="#16223f" stroke-opacity=".5" stroke-width="1"/><line x1="0" y1="672" x2="1500" y2="672" stroke="#16223f" stroke-opacity=".5" stroke-width="1"/><line x1="0" y1="728" x2="1500" y2="728" stroke="#16223f" stroke-opacity=".5" stroke-width="1"/><line x1="0" y1="784" x2="1500" y2="784" stroke="#16223f" stroke-opacity=".5" stroke-width="1"/><g text-anchor="middle"><rect x="640" y="38" width="220" height="40" rx="20" fill="#101a33" stroke="#27365e"/><circle cx="672" cy="58" r="5" fill="#2fd2c2"/><text x="762" y="64" font-size="20" font-weight="700" fill="#93a6cc">How it works</text><text x="750" y="128" font-size="42" font-weight="700" fill="#eaf1ff" letter-spacing="-1">Your market on one wave.</text><text x="750" y="168" text-anchor="middle" font-size="19" fill="#93a6cc">A live read on the suburb — scanned, tuned, transmitted.</text></g><line x1="250" y1="420" x2="1290" y2="420" stroke="#27406e" stroke-width="2" stroke-dasharray="2 9"/><line x1="300" y1="413" x2="300" y2="427" stroke="#33507f" stroke-width="2"/><line x1="380" y1="413" x2="380" y2="427" stroke="#33507f" stroke-width="2"/><line x1="460" y1="413" x2="460" y2="427" stroke="#33507f" stroke-width="2"/><line x1="540" y1="413" x2="540" y2="427" stroke="#33507f" stroke-width="2"/><line x1="620" y1="413" x2="620" y2="427" stroke="#33507f" stroke-width="2"/><line x1="700" y1="413" x2="700" y2="427" stroke="#33507f" stroke-width="2"/><line x1="780" y1="413" x2="780" y2="427" stroke="#33507f" stroke-width="2"/><line x1="860" y1="413" x2="860" y2="427" stroke="#33507f" stroke-width="2"/><line x1="940" y1="413" x2="940" y2="427" stroke="#33507f" stroke-width="2"/><line x1="1020" y1="413" x2="1020" y2="427" stroke="#33507f" stroke-width="2"/><line x1="1100" y1="413" x2="1100" y2="427" stroke="#33507f" stroke-width="2"/><line x1="1180" y1="413" x2="1180" y2="427" stroke="#33507f" stroke-width="2"/><polyline points="250,420.0 255,416.1 260,412.2 265,408.3 270,404.5 275,400.7 280,396.9 285,393.3 290,389.7 295,386.2 300,382.8 305,379.5 310,376.3 315,373.3 320,370.4 325,367.6 330,365.0 335,362.5 340,360.3 345,358.2 350,356.3 355,354.5 360,353.0 365,351.7 370,350.5 375,349.6 380,348.9 385,348.4 390,348.1 395,348.0 400,348.1 405,348.5 410,349.0 415,349.8 420,350.7 425,351.9 430,353.3 435,354.9 440,356.6 445,358.6 450,360.7 455,363.0 460,365.5 465,368.1 470,370.9 475,373.8 480,376.9 485,380.1 490,383.4 495,386.8 500,390.4 505,394.0 510,397.7 515,401.4 520,405.2 525,409.1 530,412.9 535,416.8 540,420.8 545,424.7 550,428.6 555,432.4 560,436.3 565,440.1 570,443.8 575,447.4 580,451.0 585,454.5 590,457.9 595,461.2 600,464.3 605,467.3 610,470.2 615,472.9 620,475.5 625,477.9 630,480.1 635,482.2 640,484.1 645,485.8 650,487.3 655,488.6 660,489.7 665,490.5 670,491.2 675,491.7 680,491.9 685,492.0 690,491.8 695,491.4 700,490.9 705,490.1 710,489.0 715,487.8 720,486.4 725,484.8 730,483.0 735,481.0 740,478.9 745,476.5 750,474.0 755,471.4 760,468.5 765,465.6 770,462.5 775,459.3 780,455.9 785,452.5 790,448.9 795,445.3 800,441.6 805,437.9 810,434.0 815,430.2 820,426.3 825,422.4 830,418.5 835,414.6 840,410.7 845,406.8 850,403.0 855,399.2 860,395.5 865,391.9 870,388.3 875,384.8 880,381.5 885,378.2 890,375.1 895,372.1 900,369.3 905,366.6 910,364.0 915,361.6 920,359.4 925,357.4 930,355.6 935,353.9 940,352.5 945,351.2 950,350.2 955,349.3 960,348.7 965,348.2 970,348.0 975,348.0 980,348.2 985,348.7 990,349.3 995,350.1 1000,351.2 1005,352.4 1010,353.9 1015,355.5 1020,357.4 1025,359.4 1030,361.6 1035,364.0 1040,366.5 1045,369.2 1050,372.0 1055,375.0 1060,378.1 1065,381.4 1070,384.7 1075,388.2 1080,391.8 1085,395.4 1090,399.1 1095,402.9 1100,406.7 1105,410.6 1110,414.5 1115,418.4 1120,422.3 1125,426.2 1130,430.1 1135,433.9 1140,437.8 1145,441.5 1150,445.2 1155,448.8 1160,452.4 1165,455.8 1170,459.2 1175,462.4 1180,465.5 1185,468.5 1190,471.3 1195,473.9 1200,476.5 1205,478.8 1210,481.0 1215,483.0 1220,484.8 1225,486.4 1230,487.8 1235,489.0 1240,490.0 1245,490.8 1250,491.4 1255,491.8 1260,492.0 1265,492.0 1270,491.7 1275,491.2 1280,490.6 1285,489.7 1290,488.6" fill="none" stroke="#46e8d8" stroke-width="10" stroke-linecap="round" stroke-linejoin="round" filter="url(#glow)" opacity=".8"/><polyline points="250,420.0 255,416.1 260,412.2 265,408.3 270,404.5 275,400.7 280,396.9 285,393.3 290,389.7 295,386.2 300,382.8 305,379.5 310,376.3 315,373.3 320,370.4 325,367.6 330,365.0 335,362.5 340,360.3 345,358.2 350,356.3 355,354.5 360,353.0 365,351.7 370,350.5 375,349.6 380,348.9 385,348.4 390,348.1 395,348.0 400,348.1 405,348.5 410,349.0 415,349.8 420,350.7 425,351.9 430,353.3 435,354.9 440,356.6 445,358.6 450,360.7 455,363.0 460,365.5 465,368.1 470,370.9 475,373.8 480,376.9 485,380.1 490,383.4 495,386.8 500,390.4 505,394.0 510,397.7 515,401.4 520,405.2 525,409.1 530,412.9 535,416.8 540,420.8 545,424.7 550,428.6 555,432.4 560,436.3 565,440.1 570,443.8 575,447.4 580,451.0 585,454.5 590,457.9 595,461.2 600,464.3 605,467.3 610,470.2 615,472.9 620,475.5 625,477.9 630,480.1 635,482.2 640,484.1 645,485.8 650,487.3 655,488.6 660,489.7 665,490.5 670,491.2 675,491.7 680,491.9 685,492.0 690,491.8 695,491.4 700,490.9 705,490.1 710,489.0 715,487.8 720,486.4 725,484.8 730,483.0 735,481.0 740,478.9 745,476.5 750,474.0 755,471.4 760,468.5 765,465.6 770,462.5 775,459.3 780,455.9 785,452.5 790,448.9 795,445.3 800,441.6 805,437.9 810,434.0 815,430.2 820,426.3 825,422.4 830,418.5 835,414.6 840,410.7 845,406.8 850,403.0 855,399.2 860,395.5 865,391.9 870,388.3 875,384.8 880,381.5 885,378.2 890,375.1 895,372.1 900,369.3 905,366.6 910,364.0 915,361.6 920,359.4 925,357.4 930,355.6 935,353.9 940,352.5 945,351.2 950,350.2 955,349.3 960,348.7 965,348.2 970,348.0 975,348.0 980,348.2 985,348.7 990,349.3 995,350.1 1000,351.2 1005,352.4 1010,353.9 1015,355.5 1020,357.4 1025,359.4 1030,361.6 1035,364.0 1040,366.5 1045,369.2 1050,372.0 1055,375.0 1060,378.1 1065,381.4 1070,384.7 1075,388.2 1080,391.8 1085,395.4 1090,399.1 1095,402.9 1100,406.7 1105,410.6 1110,414.5 1115,418.4 1120,422.3 1125,426.2 1130,430.1 1135,433.9 1140,437.8 1145,441.5 1150,445.2 1155,448.8 1160,452.4 1165,455.8 1170,459.2 1175,462.4 1180,465.5 1185,468.5 1190,471.3 1195,473.9 1200,476.5 1205,478.8 1210,481.0 1215,483.0 1220,484.8 1225,486.4 1230,487.8 1235,489.0 1240,490.0 1245,490.8 1250,491.4 1255,491.8 1260,492.0 1265,492.0 1270,491.7 1275,491.2 1280,490.6 1285,489.7 1290,488.6" fill="none" stroke="#5ff0e0" stroke-width="5" stroke-linecap="round" stroke-linejoin="round"/><circle cx="300" cy="420" r="108" fill="#fff" filter="url(#cardSh)"/><circle cx="300" cy="420" r="92" fill="none" stroke="#2fd2c2" stroke-opacity="0.22" stroke-width="2.4"/><circle cx="300" cy="420" r="57" fill="none" stroke="#2fd2c2" stroke-opacity="0.32" stroke-width="2.4"/><circle cx="300" cy="420" r="28" fill="none" stroke="#2fd2c2" stroke-opacity="0.44" stroke-width="2.4"/><line x1="208" y1="420" x2="392" y2="420" stroke="#2fd2c2" stroke-opacity=".18" stroke-width="2"/><line x1="300" y1="328" x2="300" y2="512" stroke="#2fd2c2" stroke-opacity=".18" stroke-width="2"/><path d="M300,420 L349,342 A92,92 0 0,1 392,423 Z" fill="url(#sweepL)"/><circle cx="319" cy="350" r="6" fill="#49e8d8"/><circle cx="298" cy="443" r="4" fill="#3a5170"/><circle cx="233" cy="433" r="6" fill="#49e8d8"/><circle cx="305" cy="381" r="4" fill="#3a5170"/><circle cx="294" cy="373" r="6" fill="#49e8d8"/><circle cx="286" cy="389" r="4" fill="#3a5170"/><circle cx="300" cy="420" r="6" fill="#2fd2c2"/><rect x="672" y="342" width="156" height="156" rx="32" fill="#101a33" stroke="#27365e"/><rect x="683" y="416" width="14" height="34" rx="6" fill="url(#c2)" filter="url(#glow)"/><rect x="707" y="390" width="14" height="60" rx="6" fill="url(#c2)" filter="url(#glow)"/><rect x="731" y="406" width="14" height="44" rx="6" fill="url(#c2)" filter="url(#glow)"/><rect x="755" y="380" width="14" height="70" rx="6" fill="url(#c2)" filter="url(#glow)"/><rect x="779" y="410" width="14" height="40" rx="6" fill="url(#c2)" filter="url(#glow)"/><rect x="803" y="394" width="14" height="56" rx="6" fill="url(#c2)" filter="url(#glow)"/><path d="M1174,464 L1200,360 L1226,464 Z" fill="none" stroke="#7c5cff" stroke-width="6" stroke-linejoin="round"/><circle cx="1200" cy="354" r="10" fill="url(#c3)"/><path d="M1208 326 A 28 28 0 0 1 1208 382" fill="none" stroke="url(#c3)" stroke-width="6" stroke-linecap="round" opacity="0.90" filter="url(#glow)"/><path d="M1208 302 A 52 52 0 0 1 1208 406" fill="none" stroke="url(#c3)" stroke-width="6" stroke-linecap="round" opacity="0.66" filter="url(#glow)"/><path d="M1208 278 A 76 76 0 0 1 1208 430" fill="none" stroke="url(#c3)" stroke-width="6" stroke-linecap="round" opacity="0.42" filter="url(#glow)"/><circle cx="1142" cy="516" r="15" fill="#101a33" stroke="#9a7fff" stroke-width="3"/><circle cx="1142" cy="512" r="5" fill="#9a7fff"/><path d="M1135,525 a7,5 0 0 1 14,0" fill="#9a7fff"/><circle cx="1200" cy="516" r="15" fill="#101a33" stroke="#9a7fff" stroke-width="3"/><circle cx="1200" cy="512" r="5" fill="#9a7fff"/><path d="M1193,525 a7,5 0 0 1 14,0" fill="#9a7fff"/><circle cx="1258" cy="516" r="15" fill="#101a33" stroke="#9a7fff" stroke-width="3"/><circle cx="1258" cy="512" r="5" fill="#9a7fff"/><path d="M1251,525 a7,5 0 0 1 14,0" fill="#9a7fff"/><text x="300" y="655" text-anchor="middle" font-size="23" font-weight="700" fill="#eaf1ff">1 · Scan</text><text x="300" y="685" text-anchor="middle" font-size="17" fill="#93a6cc">Pick up every local ad.</text><text x="750" y="655" text-anchor="middle" font-size="23" font-weight="700" fill="#eaf1ff">2 · Build</text><text x="750" y="685" text-anchor="middle" font-size="17" fill="#93a6cc">Tune it to what works.</text><text x="1200" y="655" text-anchor="middle" font-size="23" font-weight="700" fill="#eaf1ff">3 · Broadcast</text><text x="1200" y="685" text-anchor="middle" font-size="17" fill="#93a6cc">Transmit to buyers.</text></svg>