<svg xmlns="http://www.w3.org/2000/svg" viewBox="0 0 1500 820" font-family="Liberation Sans, Arial, sans-serif"><defs><linearGradient id="c2" x1="0" y1="0" x2="1" y2="1"><stop offset="0" stop-color="#2fd2c2"/><stop offset="1" stop-color="#10a294"/></linearGradient>
 <linearGradient id="c3" x1="0" y1="0" x2="1" y2="1"><stop offset="0" stop-color="#9a7fff"/><stop offset="1" stop-color="#5a36e0"/></linearGradient>
 <linearGradient id="sweepL" x1="0" y1="0" x2="1" y2="0"><stop offset="0" stop-color="#2fd2c2" stop-opacity="0"/><stop offset="1" stop-color="#2fd2c2" stop-opacity=".5"/></linearGradient>
 <filter id="cardSh" x="-40%" y="-40%" width="180%" height="180%"><feDropShadow dx="0" dy="11" stdDeviation="15" flood-color="#1f3a7a" flood-opacity="0.10"/></filter>
 <filter id="glow" x="-90%" y="-90%" width="280%" height="280%"><feGaussianBlur stdDeviation="5"/></filter><radialGradient id="aA" cx="18%" cy="14%" r="62%"><stop offset="0" stop-color="#e9eefb" stop-opacity=".9"/><stop offset="1" stop-color="#e9eefb" stop-opacity="0"/></radialGradient><radialGradient id="aB" cx="85%" cy="90%" r="62%"><stop offset="0" stop-color="#ece7fb" stop-opacity=".9"/><stop offset="1" stop-color="#ece7fb" stop-opacity="0"/></radialGradient></defs><rect width="1500" height="820" fill="#fafbfc"/><rect width="1500" height="820" fill="url(#aA)"/><rect width="1500" height="820" fill="url(#aB)"/><g text-anchor="middle"><rect x="640" y="38" width="220" height="40" rx="20" fill="#ffffff" stroke="#e7e8ec"/><circle cx="672" cy="58" r="5" fill="#2fd2c2"/><text x="762" y="64" font-size="20" font-weight="700" fill="#3a3f4a">How it works</text><text x="750" y="128" font-size="42" font-weight="700" fill="#0f1115" letter-spacing="-1">Raw market in, tuned ad out.</text><text x="750" y="168" text-anchor="middle" font-size="19" fill="#3a3f4a">A noisy suburb becomes one clean signal — then it goes out.</text></g><line x1="250" y1="420" x2="1290" y2="420" stroke="#dde3ee" stroke-width="2" stroke-dasharray="2 9"/><polyline points="250,414.2 255,418.0 260,411.3 265,413.7 270,411.7 275,397.0 280,393.8 285,410.3 290,396.2 295,394.8 300,411.0 305,399.4 310,407.8 315,400.6 320,405.4 325,396.2 330,408.8 335,416.1 340,411.0 345,418.5 350,419.8 355,409.3 360,427.6 365,426.8 370,423.2 375,419.9 380,440.6 385,434.1 390,441.4 395,446.4 400,443.8 405,449.0 410,437.7 415,446.4 420,438.0 425,447.7 430,445.0 435,426.1 440,424.8 445,424.2 450,438.0 455,423.6 460,424.9 465,414.8 470,416.4 475,410.9 480,407.5 485,410.1 490,407.9 495,412.9 500,406.5 505,410.7 510,408.3 515,410.8 520,403.8 525,393.1 530,409.4 535,412.9 540,413.3 545,407.9 550,413.4 555,404.9 560,421.2 565,418.4 570,415.0 575,413.1 580,433.3 585,439.1 590,421.8 595,439.8 600,433.3 605,429.3 610,433.8 615,445.2 620,448.1 625,430.0 630,442.2 635,428.9 640,442.6 645,432.5 650,442.8 655,442.8 660,429.8 665,438.0 670,420.0 675,412.0 680,420.6 685,405.2 690,406.0 695,408.0 700,410.0 705,397.9 710,393.5 715,410.2 720,396.9 725,410.4 730,408.7 735,397.5 740,399.9 745,402.2 750,406.3 755,407.0" fill="none" stroke="#3f8bf0" stroke-width="7" stroke-linecap="round" stroke-linejoin="round"/><polyline points="750,420.0 755,416.6 760,413.3 765,409.9 770,406.6 775,403.3 780,400.1 785,396.9 790,393.8 795,390.7 800,387.8 805,384.9 810,382.1 815,379.4 820,376.8 825,374.3 830,371.9 835,369.7 840,367.6 845,365.6 850,363.7 855,362.1 860,360.5 865,359.1 870,357.9 875,356.9 880,356.0 885,355.2 890,354.7 895,354.3 900,354.1 905,354.0 910,354.1 915,354.4 920,354.9 925,355.5 930,356.3 935,357.3 940,358.4 945,359.7 950,361.2 955,362.8 960,364.5 965,366.4 970,368.4 975,370.6 980,372.9 985,375.3 990,377.9 995,380.5 1000,383.2 1005,386.1 1010,389.0 1015,392.0 1020,395.1 1025,398.3 1030,401.5 1035,404.7 1040,408.0 1045,411.4 1050,414.7 1055,418.1 1060,421.4 1065,424.8 1070,428.1 1075,431.5 1080,434.8 1085,438.0 1090,441.2 1095,444.4 1100,447.5 1105,450.5 1110,453.5 1115,456.3 1120,459.1 1125,461.8 1130,464.3 1135,466.7 1140,469.1 1145,471.2 1150,473.3 1155,475.2 1160,477.0 1165,478.6 1170,480.1 1175,481.4 1180,482.6 1185,483.5 1190,484.4 1195,485.0 1200,485.5 1205,485.8 1210,486.0 1215,486.0 1220,485.8 1225,485.4 1230,484.9 1235,484.2 1240,483.3 1245,482.3 1250,481.1 1255,479.7 1260,478.2 1265,476.5 1270,474.7 1275,472.8 1280,470.7 1285,468.4 1290,466.1" fill="none" stroke="#1fb3a6" stroke-width="9" stroke-linecap="round" stroke-linejoin="round"/><text x="470" y="350" text-anchor="middle" font-size="15" font-weight="700" letter-spacing="1" fill="#7d8aa0">RAW</text><text x="1010" y="318" text-anchor="middle" font-size="15" font-weight="700" letter-spacing="1" fill="#1fb3a6">TUNED</text><circle cx="300" cy="420" r="108" fill="#fff" filter="url(#cardSh)"/><circle cx="300" cy="420" r="92" fill="none" stroke="#2fbfb0" stroke-opacity="0.22" stroke-width="2.4"/><circle cx="300" cy="420" r="57" fill="none" stroke="#2fbfb0" stroke-opacity="0.32" stroke-width="2.4"/><circle cx="300" cy="420" r="28" fill="none" stroke="#2fbfb0" stroke-opacity="0.44" stroke-width="2.4"/><line x1="208" y1="420" x2="392" y2="420" stroke="#2fbfb0" stroke-opacity=".18" stroke-width="2"/><line x1="300" y1="328" x2="300" y2="512" stroke="#2fbfb0" stroke-opacity=".18" stroke-width="2"/><path d="M300,420 L349,342 A92,92 0 0,1 392,423 Z" fill="url(#sweepL)"/><circle cx="319" cy="350" r="6" fill="#1f6feb"/><circle cx="298" cy="443" r="4" fill="#9aa3b4"/><circle cx="233" cy="433" r="6" fill="#1f6feb"/><circle cx="305" cy="381" r="4" fill="#9aa3b4"/><circle cx="294" cy="373" r="6" fill="#1f6feb"/><circle cx="286" cy="389" r="4" fill="#9aa3b4"/><circle cx="300" cy="420" r="6" fill="#2fbfb0"/><rect x="672" y="342" width="156" height="156" rx="32" fill="#fff" filter="url(#cardSh)"/><rect x="683" y="416" width="14" height="34" rx="6" fill="url(#c2)"/><rect x="707" y="390" width="14" height="60" rx="6" fill="url(#c2)"/><rect x="731" y="406" width="14" height="44" rx="6" fill="url(#c2)"/><rect x="755" y="380" width="14" height="70" rx="6" fill="url(#c2)"/><rect x="779" y="410" width="14" height="40" rx="6" fill="url(#c2)"/><rect x="803" y="394" width="14" height="56" rx="6" fill="url(#c2)"/><path d="M1174,464 L1200,360 L1226,464 Z" fill="none" stroke="#7c5cff" stroke-width="6" stroke-linejoin="round"/><circle cx="1200" cy="354" r="10" fill="url(#c3)"/><path d="M1208 326 A 28 28 0 0 1 1208 382" fill="none" stroke="url(#c3)" stroke-width="6" stroke-linecap="round" opacity="0.90"/><path d="M1208 302 A 52 52 0 0 1 1208 406" fill="none" stroke="url(#c3)" stroke-width="6" stroke-linecap="round" opacity="0.66"/><path d="M1208 278 A 76 76 0 0 1 1208 430" fill="none" stroke="url(#c3)" stroke-width="6" stroke-linecap="round" opacity="0.42"/><circle cx="1142" cy="516" r="15" fill="#fff" stroke="#9a7fff" stroke-width="3"/><circle cx="1142" cy="512" r="5" fill="#9a7fff"/><path d="M1135,525 a7,5 0 0 1 14,0" fill="#9a7fff"/><circle cx="1200" cy="516" r="15" fill="#fff" stroke="#9a7fff" stroke-width="3"/><circle cx="1200" cy="512" r="5" fill="#9a7fff"/><path d="M1193,525 a7,5 0 0 1 14,0" fill="#9a7fff"/><circle cx="1258" cy="516" r="15" fill="#fff" stroke="#9a7fff" stroke-width="3"/><circle cx="1258" cy="512" r="5" fill="#9a7fff"/><path d="M1251,525 a7,5 0 0 1 14,0" fill="#9a7fff"/><text x="300" y="655" text-anchor="middle" font-size="23" font-weight="700" fill="#0f1115">1 · Scan</text><text x="300" y="685" text-anchor="middle" font-size="17" fill="#3a3f4a">Pick up every local ad.</text><text x="750" y="655" text-anchor="middle" font-size="23" font-weight="700" fill="#0f1115">2 · Build</text><text x="750" y="685" text-anchor="middle" font-size="17" fill="#3a3f4a">Tune it to what works.</text><text x="1200" y="655" text-anchor="middle" font-size="23" font-weight="700" fill="#0f1115">3 · Broadcast</text><text x="1200" y="685" text-anchor="middle" font-size="17" fill="#3a3f4a">Transmit to buyers.</text></svg>