<svg xmlns="http://www.w3.org/2000/svg" viewBox="0 0 1500 820" font-family="Liberation Sans, Arial, sans-serif"><defs><linearGradient id="c2" x1="0" y1="0" x2="1" y2="1"><stop offset="0" stop-color="#2fd2c2"/><stop offset="1" stop-color="#10a294"/></linearGradient>
 <linearGradient id="c3" x1="0" y1="0" x2="1" y2="1"><stop offset="0" stop-color="#9a7fff"/><stop offset="1" stop-color="#5a36e0"/></linearGradient>
 <linearGradient id="sweepL" x1="0" y1="0" x2="1" y2="0"><stop offset="0" stop-color="#2fd2c2" stop-opacity="0"/><stop offset="1" stop-color="#2fd2c2" stop-opacity=".5"/></linearGradient>
 <filter id="cardSh" x="-40%" y="-40%" width="180%" height="180%"><feDropShadow dx="0" dy="11" stdDeviation="15" flood-color="#1f3a7a" flood-opacity="0.10"/></filter>
 <filter id="glow" x="-90%" y="-90%" width="280%" height="280%"><feGaussianBlur stdDeviation="5"/></filter><radialGradient id="aA" cx="18%" cy="14%" r="62%"><stop offset="0" stop-color="#e9eefb" stop-opacity=".9"/><stop offset="1" stop-color="#e9eefb" stop-opacity="0"/></radialGradient><radialGradient id="aB" cx="85%" cy="90%" r="62%"><stop offset="0" stop-color="#ece7fb" stop-opacity=".9"/><stop offset="1" stop-color="#ece7fb" stop-opacity="0"/></radialGradient></defs><rect width="1500" height="820" fill="#fafbfc"/><rect width="1500" height="820" fill="url(#aA)"/><rect width="1500" height="820" fill="url(#aB)"/><g text-anchor="middle"><rect x="640" y="38" width="220" height="40" rx="20" fill="#ffffff" stroke="#e7e8ec"/><circle cx="672" cy="58" r="5" fill="#2fd2c2"/><text x="762" y="64" font-size="20" font-weight="700" fill="#3a3f4a">How it works</text><text x="750" y="128" font-size="42" font-weight="700" fill="#0f1115" letter-spacing="-1">Three beats to live.</text><text x="750" y="168" text-anchor="middle" font-size="19" fill="#3a3f4a">A pulse on your market — scan, build, broadcast.</text></g><defs><linearGradient id="c2b" x1="0" y1="0" x2="1" y2="1"><stop offset="0" stop-color="#4f97ff"/><stop offset="1" stop-color="#1f5fd6"/></linearGradient></defs><line x1="250" y1="470" x2="1290" y2="470" stroke="#e6ebf3" stroke-width="2"/><polyline points="250,470.0 396,470.0 414,461.0 422,482.0 428,404.0 433,496.0 440,470.0 464,470.0 716,470.0 734,461.0 742,482.0 748,404.0 753,496.0 760,470.0 784,470.0 1036,470.0 1054,461.0 1062,482.0 1068,404.0 1073,496.0 1080,470.0 1104,470.0 1290,470.0" fill="none" stroke="#1fb3a6" stroke-width="5" stroke-linecap="round" stroke-linejoin="round"/><line x1="430" y1="362" x2="430" y2="404" stroke="#cdd5e2" stroke-width="2" stroke-dasharray="2 7"/><rect x="388" y="278" width="84" height="84" rx="22" fill="url(#c2b)" filter="url(#cardSh)"/><g transform="translate(430,320)" stroke="#fff" stroke-width="4.5" fill="none" stroke-linecap="round"><circle cx="-4" cy="-4" r="13"/><path d="M6,6 L18,18"/></g><line x1="750" y1="362" x2="750" y2="404" stroke="#cdd5e2" stroke-width="2" stroke-dasharray="2 7"/><rect x="708" y="278" width="84" height="84" rx="22" fill="url(#c2)" filter="url(#cardSh)"/><rect x="724" y="316" width="8" height="20" rx="4" fill="#fff"/><rect x="737" y="302" width="8" height="34" rx="4" fill="#fff"/><rect x="750" y="310" width="8" height="26" rx="4" fill="#fff"/><rect x="763" y="296" width="8" height="40" rx="4" fill="#fff"/><line x1="1070" y1="362" x2="1070" y2="404" stroke="#cdd5e2" stroke-width="2" stroke-dasharray="2 7"/><rect x="1028" y="278" width="84" height="84" rx="22" fill="url(#c3)" filter="url(#cardSh)"/><circle cx="1060" cy="320" r="7" fill="#fff"/><path d="M1068 304 A 16 16 0 0 1 1068 336" fill="none" stroke="#fff" stroke-width="4" stroke-linecap="round" opacity="0.9"/><path d="M1068 292 A 28 28 0 0 1 1068 348" fill="none" stroke="#fff" stroke-width="4" stroke-linecap="round" opacity="0.65"/><text x="430" y="640" text-anchor="middle" font-size="23" font-weight="700" fill="#0f1115">1 · Scan</text><text x="430" y="670" text-anchor="middle" font-size="17" fill="#3a3f4a">Pick up every local ad.</text><text x="750" y="640" text-anchor="middle" font-size="23" font-weight="700" fill="#0f1115">2 · Build</text><text x="750" y="670" text-anchor="middle" font-size="17" fill="#3a3f4a">Tune it to what works.</text><text x="1070" y="640" text-anchor="middle" font-size="23" font-weight="700" fill="#0f1115">3 · Broadcast</text><text x="1070" y="670" text-anchor="middle" font-size="17" fill="#3a3f4a">Transmit to buyers.</text></svg>